<svg width="249" height="73" viewBox="0 0 249 73" fill="none" xmlns="http://www.w3.org/2000/svg">
<path d="M36.0678 0C28.9343 -8.50666e-08 21.9609 2.11534 16.0296 6.07852C10.0983 10.0417 5.47541 15.6747 2.74552 22.2652C0.0156288 28.8558 -0.698635 36.1078 0.693047 43.1043C2.08473 50.1007 5.51986 56.5274 10.564 61.5716C15.6082 66.6157 22.0348 70.0509 29.0313 71.4426C36.0278 72.8342 43.2798 72.12 49.8703 69.3901C56.4609 66.6602 62.0939 62.0373 66.0571 56.106C70.0202 50.1747 72.1356 43.2013 72.1356 36.0678H54.1017C54.1017 39.6346 53.044 43.1212 51.0624 46.0869C49.0808 49.0526 46.2643 51.364 42.9691 52.7289C39.6738 54.0939 36.0478 54.451 32.5496 53.7552C29.0513 53.0593 25.838 51.3418 23.3159 48.8197C20.7938 46.2976 19.0763 43.0843 18.3804 39.586C17.6846 36.0878 18.0417 32.4618 19.4066 29.1665C20.7716 25.8713 23.083 23.0547 26.0487 21.0732C29.0144 19.0916 32.501 18.0339 36.0678 18.0339V0Z" fill="white"/>
<path d="M36.0678 0C31.3313 -5.64821e-08 26.6412 0.932921 22.2652 2.7455C17.8893 4.55807 13.9132 7.21481 10.564 10.564C7.21481 13.9132 4.55807 17.8893 2.7455 22.2653C0.93292 26.6412 -7.1519e-07 31.3313 0 36.0678H18.0339C18.0339 33.6996 18.5004 31.3545 19.4066 29.1665C20.3129 26.9785 21.6413 24.9905 23.3159 23.3159C24.9905 21.6413 26.9785 20.3129 29.1665 19.4066C31.3545 18.5004 33.6995 18.0339 36.0678 18.0339V0Z" fill="#5CE1E6"/>
<path d="M36.0678 47.339C42.2927 47.339 47.339 42.2927 47.339 36.0678C47.339 29.8429 42.2927 24.7966 36.0678 24.7966C29.8429 24.7966 24.7966 29.8429 24.7966 36.0678C24.7966 42.2927 29.8429 47.339 36.0678 47.339Z" fill="#5CE1E6"/>
<path d="M47.339 36.0678C47.339 34.5877 47.0475 33.122 46.481 31.7545C45.9146 30.387 45.0844 29.1445 44.0377 28.0979C42.9911 27.0513 41.7486 26.221 40.3811 25.6546C39.0136 25.0882 37.548 24.7966 36.0678 24.7966C34.5876 24.7966 33.122 25.0882 31.7545 25.6546C30.387 26.221 29.1445 27.0513 28.0979 28.0979C27.0512 29.1445 26.221 30.387 25.6546 31.7545C25.0882 33.122 24.7966 34.5877 24.7966 36.0678H36.0678H47.339Z" fill="white"/>
<path d="M98.4062 35.0625C98.4062 36.3021 98.0938 37.4792 97.4688 38.5938C96.8438 39.6979 95.8698 40.5938 94.5469 41.2812C93.2344 41.9688 91.5365 42.3125 89.4531 42.3125C88.4115 42.3125 87.4948 42.2656 86.7031 42.1719C85.9219 42.0781 85.1927 41.9271 84.5156 41.7188C83.8385 41.5 83.1354 41.2188 82.4062 40.875V35.375C83.6458 36 84.8958 36.4792 86.1562 36.8125C87.4167 37.1354 88.5573 37.2969 89.5781 37.2969C90.1927 37.2969 90.6927 37.224 91.0781 37.0781C91.474 36.9323 91.7656 36.7344 91.9531 36.4844C92.1406 36.224 92.2344 35.9271 92.2344 35.5938C92.2344 35.1979 92.0938 34.8646 91.8125 34.5938C91.5417 34.3125 91.1042 34.0208 90.5 33.7188C89.8958 33.4167 89.099 33.0417 88.1094 32.5938C87.2656 32.1979 86.5 31.7917 85.8125 31.375C85.1354 30.9583 84.5521 30.4844 84.0625 29.9531C83.5833 29.4115 83.2135 28.7812 82.9531 28.0625C82.6927 27.3438 82.5625 26.4948 82.5625 25.5156C82.5625 24.0469 82.9219 22.8177 83.6406 21.8281C84.3698 20.8281 85.3802 20.0781 86.6719 19.5781C87.974 19.0781 89.474 18.8281 91.1719 18.8281C92.6615 18.8281 94 18.9948 95.1875 19.3281C96.3854 19.6615 97.4583 20.0417 98.4062 20.4688L96.5156 25.2344C95.5365 24.7865 94.5729 24.4323 93.625 24.1719C92.6771 23.901 91.7969 23.7656 90.9844 23.7656C90.4531 23.7656 90.0156 23.8333 89.6719 23.9688C89.3385 24.0938 89.0885 24.2656 88.9219 24.4844C88.7656 24.7031 88.6875 24.9531 88.6875 25.2344C88.6875 25.5885 88.8229 25.9062 89.0938 26.1875C89.375 26.4688 89.8385 26.776 90.4844 27.1094C91.1406 27.4323 92.0312 27.8542 93.1562 28.375C94.2708 28.875 95.2188 29.4167 96 30C96.7812 30.5729 97.375 31.2656 97.7812 32.0781C98.1979 32.8802 98.4062 33.875 98.4062 35.0625ZM115.5 42H101.938V19.1562H115.5V24.1094H108.109V27.7031H114.953V32.6562H108.109V36.9688H115.5V42ZM133.516 42L132.391 37.7188H124.969L123.812 42H117.031L124.484 19.0625H132.719L140.266 42H133.516ZM131.109 32.6562L130.125 28.9062C130.021 28.5 129.87 27.9219 129.672 27.1719C129.474 26.4115 129.276 25.6302 129.078 24.8281C128.891 24.0156 128.745 23.349 128.641 22.8281C128.547 23.349 128.411 23.9948 128.234 24.7656C128.068 25.526 127.891 26.2812 127.703 27.0312C127.526 27.7812 127.37 28.4062 127.234 28.9062L126.25 32.6562H131.109Z" fill="white"/>
<path d="M152.703 42L148.031 25.5469H147.891C147.932 25.974 147.974 26.5521 148.016 27.2812C148.068 28.0104 148.115 28.7969 148.156 29.6406C148.198 30.4844 148.219 31.2969 148.219 32.0781V42H142.75V19.1562H150.969L155.734 35.375H155.859L160.531 19.1562H168.766V42H163.094V31.9844C163.094 31.2656 163.104 30.4948 163.125 29.6719C163.156 28.8385 163.188 28.0573 163.219 27.3281C163.26 26.5885 163.297 26.0052 163.328 25.5781H163.188L158.578 42H152.703ZM195.062 30.5469C195.062 32.3073 194.849 33.9115 194.422 35.3594C194.005 36.7969 193.349 38.0365 192.453 39.0781C191.557 40.1198 190.406 40.9219 189 41.4844C187.594 42.0365 185.911 42.3125 183.953 42.3125C182.036 42.3125 180.375 42.0365 178.969 41.4844C177.573 40.9219 176.422 40.125 175.516 39.0938C174.609 38.0521 173.938 36.8073 173.5 35.3594C173.062 33.9115 172.844 32.2969 172.844 30.5156C172.844 28.1406 173.234 26.0781 174.016 24.3281C174.807 22.5677 176.026 21.2083 177.672 20.25C179.318 19.2812 181.422 18.7969 183.984 18.7969C186.589 18.7969 188.703 19.2812 190.328 20.25C191.964 21.2188 193.161 22.5833 193.922 24.3438C194.682 26.1042 195.062 28.1719 195.062 30.5469ZM179.344 30.5469C179.344 31.9219 179.5 33.1042 179.812 34.0938C180.125 35.0833 180.62 35.8438 181.297 36.375C181.974 36.9062 182.859 37.1719 183.953 37.1719C185.089 37.1719 185.99 36.9062 186.656 36.375C187.333 35.8438 187.818 35.0833 188.109 34.0938C188.411 33.1042 188.562 31.9219 188.562 30.5469C188.562 28.4844 188.219 26.8542 187.531 25.6562C186.844 24.4583 185.661 23.8594 183.984 23.8594C182.87 23.8594 181.969 24.1302 181.281 24.6719C180.604 25.2135 180.109 25.9844 179.797 26.9844C179.495 27.9844 179.344 29.1719 179.344 30.5469ZM220.562 30.5469C220.562 32.3073 220.349 33.9115 219.922 35.3594C219.505 36.7969 218.849 38.0365 217.953 39.0781C217.057 40.1198 215.906 40.9219 214.5 41.4844C213.094 42.0365 211.411 42.3125 209.453 42.3125C207.536 42.3125 205.875 42.0365 204.469 41.4844C203.073 40.9219 201.922 40.125 201.016 39.0938C200.109 38.0521 199.438 36.8073 199 35.3594C198.562 33.9115 198.344 32.2969 198.344 30.5156C198.344 28.1406 198.734 26.0781 199.516 24.3281C200.307 22.5677 201.526 21.2083 203.172 20.25C204.818 19.2812 206.922 18.7969 209.484 18.7969C212.089 18.7969 214.203 19.2812 215.828 20.25C217.464 21.2188 218.661 22.5833 219.422 24.3438C220.182 26.1042 220.562 28.1719 220.562 30.5469ZM204.844 30.5469C204.844 31.9219 205 33.1042 205.312 34.0938C205.625 35.0833 206.12 35.8438 206.797 36.375C207.474 36.9062 208.359 37.1719 209.453 37.1719C210.589 37.1719 211.49 36.9062 212.156 36.375C212.833 35.8438 213.318 35.0833 213.609 34.0938C213.911 33.1042 214.062 31.9219 214.062 30.5469C214.062 28.4844 213.719 26.8542 213.031 25.6562C212.344 24.4583 211.161 23.8594 209.484 23.8594C208.37 23.8594 207.469 24.1302 206.781 24.6719C206.104 25.2135 205.609 25.9844 205.297 26.9844C204.995 27.9844 204.844 29.1719 204.844 30.5469ZM246.438 42H238.344L230 25.9062H229.859C229.911 26.3958 229.958 26.9844 230 27.6719C230.042 28.3594 230.078 29.0625 230.109 29.7812C230.141 30.4896 230.156 31.1302 230.156 31.7031V42H224.688V19.1562H232.75L241.062 35.0312H241.156C241.125 34.5312 241.094 33.9531 241.062 33.2969C241.031 32.6302 241 31.9583 240.969 31.2812C240.948 30.6042 240.938 30.0052 240.938 29.4844V19.1562H246.438V42Z" fill="#5CE1E6"/>
<path d="M82.5625 59V47.5781H83.8906V59H82.5625ZM104.441 59H102.91L96.6831 49.4062H96.6206C96.6362 49.6615 96.6545 49.9531 96.6753 50.2812C96.6961 50.6042 96.7118 50.9505 96.7222 51.3203C96.7378 51.6849 96.7456 52.0573 96.7456 52.4375V59H95.5112V47.5781H97.0347L103.238 57.1406H103.292C103.282 56.9583 103.269 56.7005 103.253 56.3672C103.238 56.0286 103.222 55.6667 103.207 55.2812C103.196 54.8906 103.191 54.5286 103.191 54.1953V47.5781H104.441V59ZM125.108 53.1797C125.108 54.4661 124.874 55.5417 124.405 56.4062C123.937 57.2656 123.257 57.9141 122.366 58.3516C121.481 58.7839 120.405 59 119.14 59H116.038V47.5781H119.483C120.645 47.5781 121.645 47.7917 122.483 48.2188C123.322 48.6406 123.968 49.2682 124.421 50.1016C124.879 50.9297 125.108 51.9557 125.108 53.1797ZM123.71 53.2266C123.71 52.2005 123.538 51.3542 123.194 50.6875C122.856 50.0208 122.356 49.526 121.694 49.2031C121.038 48.875 120.233 48.7109 119.28 48.7109H117.366V57.8594H118.983C120.556 57.8594 121.736 57.4714 122.522 56.6953C123.314 55.9193 123.71 54.763 123.71 53.2266ZM144.768 47.5781V54.9688C144.768 55.776 144.604 56.4948 144.276 57.125C143.953 57.7552 143.463 58.2526 142.807 58.6172C142.151 58.9766 141.328 59.1562 140.338 59.1562C138.927 59.1562 137.851 58.7734 137.112 58.0078C136.377 57.2422 136.01 56.2188 136.01 54.9375V47.5781H137.346V54.9766C137.346 55.9453 137.601 56.6927 138.112 57.2188C138.627 57.7448 139.396 58.0078 140.417 58.0078C141.114 58.0078 141.685 57.8828 142.127 57.6328C142.575 57.3776 142.906 57.0234 143.12 56.5703C143.338 56.112 143.448 55.5833 143.448 54.9844V47.5781H144.768ZM162.725 55.9609C162.725 56.638 162.555 57.2161 162.217 57.6953C161.884 58.1693 161.415 58.5312 160.811 58.7812C160.206 59.0312 159.496 59.1562 158.678 59.1562C158.246 59.1562 157.837 59.1354 157.451 59.0938C157.066 59.0521 156.712 58.9922 156.389 58.9141C156.066 58.8359 155.782 58.7396 155.537 58.625V57.3516C155.928 57.513 156.404 57.6641 156.967 57.8047C157.529 57.9401 158.118 58.0078 158.732 58.0078C159.305 58.0078 159.79 57.9323 160.186 57.7812C160.581 57.625 160.881 57.4036 161.084 57.1172C161.292 56.8255 161.397 56.4766 161.397 56.0703C161.397 55.6797 161.311 55.3542 161.139 55.0938C160.967 54.8281 160.68 54.5885 160.279 54.375C159.884 54.1562 159.342 53.9245 158.654 53.6797C158.17 53.5078 157.743 53.3203 157.373 53.1172C157.003 52.9089 156.693 52.6745 156.443 52.4141C156.193 52.1536 156.003 51.8516 155.873 51.5078C155.748 51.1641 155.686 50.7708 155.686 50.3281C155.686 49.7188 155.839 49.1979 156.147 48.7656C156.459 48.3281 156.889 47.9948 157.436 47.7656C157.988 47.5312 158.621 47.4141 159.334 47.4141C159.943 47.4141 160.506 47.4714 161.022 47.5859C161.542 47.7005 162.019 47.8542 162.451 48.0469L162.037 49.1875C161.626 49.0156 161.188 48.8724 160.725 48.7578C160.266 48.6432 159.792 48.5859 159.303 48.5859C158.813 48.5859 158.399 48.6589 158.061 48.8047C157.727 48.9453 157.472 49.1458 157.295 49.4062C157.118 49.6667 157.029 49.9766 157.029 50.3359C157.029 50.737 157.113 51.0703 157.279 51.3359C157.451 51.6016 157.722 51.8385 158.092 52.0469C158.467 52.25 158.962 52.4635 159.576 52.6875C160.248 52.9323 160.818 53.1927 161.287 53.4688C161.756 53.7396 162.113 54.0729 162.357 54.4688C162.602 54.8594 162.725 55.3568 162.725 55.9609ZM177.048 59H175.712V48.75H172.119V47.5781H180.627V48.75H177.048V59ZM193.919 47.5781C194.857 47.5781 195.63 47.6953 196.239 47.9297C196.854 48.1589 197.312 48.5104 197.614 48.9844C197.916 49.4583 198.067 50.0625 198.067 50.7969C198.067 51.401 197.958 51.9062 197.739 52.3125C197.521 52.7135 197.234 53.0391 196.88 53.2891C196.526 53.5391 196.148 53.7318 195.747 53.8672L198.88 59H197.333L194.536 54.2344H192.161V59H190.833V47.5781H193.919ZM193.841 48.7266H192.161V53.1094H193.974C194.906 53.1094 195.591 52.9193 196.028 52.5391C196.471 52.1589 196.692 51.599 196.692 50.8594C196.692 50.0833 196.458 49.5339 195.989 49.2109C195.526 48.888 194.81 48.7266 193.841 48.7266ZM209.188 59V47.5781H210.516V59H209.188ZM228.496 59H222.137V47.5781H228.496V48.75H223.465V52.4453H228.207V53.6016H223.465V57.8281H228.496V59ZM245.953 55.9609C245.953 56.638 245.784 57.2161 245.445 57.6953C245.112 58.1693 244.643 58.5312 244.039 58.7812C243.435 59.0312 242.724 59.1562 241.906 59.1562C241.474 59.1562 241.065 59.1354 240.679 59.0938C240.294 59.0521 239.94 58.9922 239.617 58.9141C239.294 58.8359 239.01 58.7396 238.765 58.625V57.3516C239.156 57.513 239.632 57.6641 240.195 57.8047C240.757 57.9401 241.346 58.0078 241.961 58.0078C242.534 58.0078 243.018 57.9323 243.414 57.7812C243.81 57.625 244.109 57.4036 244.312 57.1172C244.521 56.8255 244.625 56.4766 244.625 56.0703C244.625 55.6797 244.539 55.3542 244.367 55.0938C244.195 54.8281 243.909 54.5885 243.507 54.375C243.112 54.1562 242.57 53.9245 241.882 53.6797C241.398 53.5078 240.971 53.3203 240.601 53.1172C240.231 52.9089 239.922 52.6745 239.672 52.4141C239.422 52.1536 239.231 51.8516 239.101 51.5078C238.976 51.1641 238.914 50.7708 238.914 50.3281C238.914 49.7188 239.067 49.1979 239.375 48.7656C239.687 48.3281 240.117 47.9948 240.664 47.7656C241.216 47.5312 241.849 47.4141 242.562 47.4141C243.172 47.4141 243.734 47.4714 244.25 47.5859C244.771 47.7005 245.247 47.8542 245.679 48.0469L245.265 49.1875C244.854 49.0156 244.416 48.8724 243.953 48.7578C243.494 48.6432 243.021 48.5859 242.531 48.5859C242.041 48.5859 241.627 48.6589 241.289 48.8047C240.955 48.9453 240.7 49.1458 240.523 49.4062C240.346 49.6667 240.257 49.9766 240.257 50.3359C240.257 50.737 240.341 51.0703 240.507 51.3359C240.679 51.6016 240.95 51.8385 241.32 52.0469C241.695 52.25 242.19 52.4635 242.804 52.6875C243.476 52.9323 244.047 53.1927 244.515 53.4688C244.984 53.7396 245.341 54.0729 245.586 54.4688C245.83 54.8594 245.953 55.3568 245.953 55.9609Z" fill="white"/>
</svg>
